# xmcd
#
# Track frame offsets:
#	150
#	11265
#	24375
#	41475
#	51300
#	64928
#	75188
#	86731
#	94951
#	104686
#	118051
#	130899
#
# Disc length: 1916 seconds
#
# Revision: 0
# Processed by: cddbd v1.5.2PL0 Copyright (c) Steve Scherf et al.
# Submitted via: audiograbber 1.83.01
#
DISCID=97077a0c
DTITLE=Marty Robbins - Portrait Of Marty
DYEAR=1962
DGENRE=Country
TTITLE0=The Bend In The River
TTITLE1=Abilene Rose
TTITLE2=Lolene
TTITLE3=Foggy Foggy Dew
TTITLE4=Beyond The Reef
TTITLE5=Ka-Lu-A
TTITLE6=Yours (Quiereme Mucho)
TTITLE7=Dusty Winds
TTITLE8=No One Will Ever Know
TTITLE9=The Nearness Of You
TTITLE10=All The Way
TTITLE11=I'll Walk Alone
EXTD=
EXTT0=
EXTT1=
EXTT2=
EXTT3=
EXTT4=
EXTT5=
EXTT6=
EXTT7=
EXTT8=
EXTT9=
EXTT10=
EXTT11=
PLAYORDER=
